Coordinates
version=1
nRows=7
nColumns=40
inDegrees=yes

Units are S.I. units (second, meters, Newtons, ...)
Angles are in degrees.

endheader
time	pelvis_tilt	pelvis_list	pelvis_rotation	pelvis_tx	pelvis_ty	pelvis_tz	hip_flexion_r	hip_adduction_r	hip_rotation_r	knee_angle_r	knee_angle_r_beta	ankle_angle_r	subtalar_angle_r	mtp_angle_r	hip_flexion_l	hip_adduction_l	hip_rotation_l	knee_angle_l	knee_angle_l_beta	ankle_angle_l	subtalar_angle_l	mtp_angle_l	lumbar_extension	lumbar_bending	lumbar_rotation	arm_flex_r	arm_add_r	arm_rot_r	elbow_flex_r	pro_sup_r	wrist_flex_r	wrist_dev_r	arm_flex_l	arm_add_l	arm_rot_l	elbow_flex_l	pro_sup_l	wrist_flex_l	wrist_dev_l
     37.52000000	     -1.83413842	     -4.53405337	      2.84658623	      1.07426624	      0.92802181	      0.37927968	     23.05943211	     -7.32554177	     -7.07953124	     64.72896459	     64.72896459	      1.60008875	    -13.23743211	     -1.27416563	     17.53911997	     -5.91703682	     -5.26146695	     27.08297108	     27.08297108	     13.72896085	    -10.54402713	      0.22388934	    -10.01129990	      3.86355746	      2.63644450	     10.62497643	    -11.99217662	     -2.10844068	     36.75796318	     44.38088365	      0.00000000	      0.00000000	      9.09855383	    -12.59169912	     -3.54624418	     40.69913306	     44.21936699	      0.00000000	      0.00000000
     37.53378571	     -1.86968997	     -4.73191385	      2.53904652	      1.07364327	      0.92905932	      0.37867977	     24.26290017	     -7.11814736	     -6.89236944	     64.27006959	     64.27006959	      1.48268969	    -12.89335627	     -1.29320962	     16.87488089	     -6.12692342	     -5.50779059	     26.56478844	     26.56478844	     13.91693911	    -10.41628801	      0.25359365	    -10.01809539	      4.09588479	      2.22403343	      9.60826929	    -12.42817811	     -2.17062128	     36.10152852	     44.41082110	      0.00000000	      0.00000000	     10.02813850	    -13.12573138	     -3.70183660	     41.20139991	     44.25907482	      0.00000000	      0.00000000
     37.54757143	     -1.77202457	     -4.77716686	      2.13455438	      1.07318478	      0.93036493	      0.37806433	     25.26262436	     -7.02026216	     -6.55279327	     63.64457252	     63.64457252	      1.34756140	    -12.50672477	     -1.29406237	     15.88995312	     -6.20475492	     -6.02973615	     25.80787773	     25.80787773	     14.06419852	    -10.09371807	      0.19676316	    -10.20628547	      4.12973591	      2.71597430	      8.37435590	    -13.15483202	     -2.30353055	     34.44544306	     44.49986490	      0.00000000	      0.00000000	     11.26153638	    -13.06562136	     -3.83774968	     42.46866855	     44.32315272	      0.00000000	      0.00000000
     37.56135714	     -1.73854250	     -4.89334407	      1.77056925	      1.07265133	      0.93147127	      0.37755866	     26.21766630	     -6.83674507	     -6.31279700	     62.76174130	     62.76174130	      1.21252355	    -12.24236155	     -1.19883330	     15.04817082	     -6.32939950	     -6.41539434	     25.13555913	     25.13555913	     14.16390994	     -9.90826649	      0.08230035	    -10.32188658	      4.26322185	      2.72939447	      7.46418817	    -13.65815623	     -2.54489662	     32.90995717	     44.59575460	      0.00000000	      0.00000000	     12.20148203	    -13.36080979	     -3.98017817	     43.57404380	     44.38654619	      0.00000000	      0.00000000
     37.57514286	     -1.72882618	     -4.98300167	      1.39465993	      1.07217589	      0.93249850	      0.37719057	     27.05103035	     -6.66813798	     -6.11888270	     61.54866928	     61.54866928	      1.14057040	    -12.07154884	     -1.04738291	     14.21449948	     -6.42032782	     -6.81264961	     24.42439909	     24.42439909	     14.20139640	     -9.77899164	     -0.14318076	    -10.37986255	      4.35217529	      2.64437967	      6.72471722	    -14.07100074	     -2.95367427	     31.15694900	     44.72355988	      0.00000000	      0.00000000	     12.97513534	    -13.74559308	     -4.17834694	     44.92231376	     44.46754976	      0.00000000	      0.00000000
     37.58892857	     -1.75965067	     -5.05782343	      1.01317982	      1.07175646	      0.93344711	      0.37695356	     27.78303382	     -6.49150524	     -5.94049915	     59.96438236	     59.96438236	      0.98238372	    -12.00646610	     -0.97307457	     13.35773619	     -6.47585066	     -7.18986140	     23.56368886	     23.56368886	     13.89785696	     -9.79752542	     -1.01560310	    -10.41184305	      4.42209697	      1.96619496	      6.98351433	    -13.99336653	     -4.59627266	     28.11724391	     45.08929753	      0.00000000	      0.00000000	     12.82852658	    -14.42564560	     -4.78727517	     47.42186245	     44.70917850	      0.00000000	      0.00000000
     37.60271429	     -1.92296082	     -5.09752564	      0.64852091	      1.07124095	      0.93405454	      0.37684635	     28.53048922	     -6.38687003	     -5.87117642	     58.03730002	     58.03730002	      0.94867916	    -11.86993698	     -0.73148804	     12.80699417	     -6.49737316	     -7.49811339	     23.00899021	     23.00899021	     14.02191167	     -9.75695617	     -0.95286330	    -10.26362912	      4.48905986	      1.65211257	      6.06566744	    -14.43823665	     -4.70538603	     27.65934456	     45.11534062	      0.00000000	      0.00000000	     13.59764327	    -14.99862529	     -5.02149330	     47.90919967	     44.75159641	      0.00000000	      0.00000000
